<svg version="1.1" class="icon icon-philips-shield icon--white logo__icon logo__icon--90" xmlns="http://www.w3.org/2000/svg" xmlns:xlink="http://www.w3.org/1999/xlink" x="0px" y="0px" viewBox="0 0 179 227" enable-background="new 0 0 179 227" xml:space="preserve">
<path class="icon__background" fill="#000200" d="M23.5,37.3h-1.4V26.2c0.5,0,0.9,0,1.4,0c4.1,0,6,1.9,6,5.3C29.5,35,27.8,37.3,23.5,37.3
	 M135.7,31.5c0-3.4-1.9-5.3-6-5.3c-0.4,0-0.9,0-1.4,0v11.2h1.4C134,37.3,135.7,35,135.7,31.5 M110.3,191.2c-0.4-1.5-1.4-10-1.4-10
	h-0.6c0,0-1,8.5-1.4,10s-1.4,2.1-2.4,2.4c-1.5,0.4-10,1.4-10,1.4v0.6c0,0,8.4,1,10,1.4c1,0.3,2,0.9,2.4,2.4s1.4,10,1.4,10h0.6
	c0,0,1-8.5,1.4-10s1.4-2.1,2.4-2.4c1.5-0.4,10-1.4,10-1.4V195c0,0-8.5-1-10-1.4C111.7,193.4,110.7,192.7,110.3,191.2 M178.1,4.9
	v132.7c0,49-39.9,89-88.9,89c-49.9,0-88.9-39.9-88.9-89V4.9C11.9,3.4,49,0,89.2,0C128.5,0,166.2,3.2,178.1,4.9 M12.8,147.2
	c9.7,6.2,23.3,9.3,34.7,9.3c17.2,0,27.6-5.1,39-10.8c15.6-7.8,28.6-16,48.9-15.9c12.3,0.1,23.2,3.3,31,7.4c0-3.2-0.2-6.4-0.6-9.6
	c-9.7-6.2-23.3-9.3-34.6-9.3c-17.2,0-27.6,5.3-38.9,10.9c-14.6,7.2-28.6,16-48.8,16c-12.4,0-23.3-3.3-31.2-7.5l0,0
	C12.2,140.9,12.4,144.1,12.8,147.2 M67.6,74.8c0.4-1.5,1.3-8.6,1.7-11.5c-6.2,1.7-12.1,4.1-17.6,7.1c0.3,2.6,0.7,5.9,1.1,9.1
	c2.8-0.3,10.1-1.2,11.7-1.6C65.8,77.5,67.1,76.7,67.6,74.8 M67.6,85.3c-0.5-1.9-1.8-2.7-3.1-3.1c-1.5-0.4-8.6-1.3-11.5-1.7
	c0.5,4,1.1,7.6,1.5,8.9c1,3.5,3.3,5,5.6,5.6c1.3,0.4,5.1,0.9,9.2,1.5C68.9,93.5,68.1,86.8,67.6,85.3 M12.8,128
	c8.5,3.4,18.1,5,26.2,5c3.8,0,7.4-0.3,10.8-0.9c-0.3-2.8-2.3-20.4-3.2-23.6c-1-3.5-3.3-5-5.6-5.6c-2.4-0.7-12.9-2-19.1-2.7
	C17.2,108.7,14,118,12.8,128 M41,95.1c2.3-0.6,4.6-2.1,5.6-5.6c0.6-2.2,1.8-11.3,2.6-17.6c-10.5,6.4-19.3,15.2-25.7,25.7
	C29.7,96.8,38.7,95.7,41,95.1 M128.4,142.5c0.2,1.6,2.4,20.7,3.3,24c1,3.5,3.3,4.9,5.6,5.6c2.5,0.7,13.4,2.1,19.5,2.8
	c4.7-8.5,7.8-17.9,9-28c-8.5-3.4-18.3-5.2-26.3-5.2C135.4,141.7,131.8,142,128.4,142.5 M158.8,41.2c0,1.7-1.2,2.6-4.3,2.6
	c-2.7,0-6.9-0.9-9.4-2.2l0.9,6.2c2.5,0.9,5.9,1.4,8.6,1.4c6.9,0,12.6-2.3,12.6-9.1c0-9.1-13-7.4-13-11.7c0-1.5,1.5-2.2,3.8-2.2
	c2.6,0,5.4,0.6,7.4,1.4l-0.7-5.9c-2.1-0.5-4.1-0.8-7.6-0.8c-6.7,0-11.2,2.6-11.2,8.2C145.9,38.7,158.8,36.8,158.8,41.2 M89.3,60.6
	c-6.5,0-12.9,0.8-18.9,2.3c0.3,2.7,1.2,10.2,1.7,11.8c0.6,1.9,1.8,2.7,3.1,3.1c1.9,0.5,12.8,1.8,12.8,1.8v0.8c0,0-10.9,1.3-12.8,1.8
	c-1.3,0.4-2.5,1.2-3.1,3.1c-0.4,1.5-1.3,8.4-1.6,11.4c6.4,0.9,13.3,1.6,13.3,1.6v1.4c0,0-20.2,2.3-23.6,3.3
	c-2.3,0.6-4.6,2.1-5.6,5.6c-0.9,3.2-2.9,20.7-3.2,23.3c14.2-2.6,26.3-9.9,35.4-14.3c13-6.3,24.8-11.4,41-11.4
	c14.1,0,26.5,4.5,35.6,10.1C154,84.1,124.4,60.6,89.3,60.6 M119.7,48.7h8.3v-6.5h2.9c7.7,0,12.6-4,12.6-10.9
	c0-7.6-5.2-10.3-13.7-10.3c-3.3,0-7.2,0.2-10.1,0.6C119.7,21.6,119.7,48.7,119.7,48.7z M105.2,48.7h8.3V21.6h-8.3V48.7z M86.1,48.7
	H101l1.2-5.4h-7.9V21.6H86v27.1H86.1z M71.7,48.7H80V21.6h-8.3V48.7z M40.5,48.7h8.3V38h8.6v10.6h8.3v-27h-8.3v10.8h-8.6V21.6h-8.3
	C40.5,21.6,40.5,48.7,40.5,48.7z M13.4,48.7h8.3v-6.5h2.9c7.7,0,12.6-4,12.6-10.9C37.2,23.8,32,21,23.5,21c-3.3,0-7.2,0.2-10.1,0.6
	V48.7z M89.3,214.8c13.5,0,26.2-3.5,37.3-9.6c-0.7-6.1-2.1-17-2.8-19.5c-1-3.5-3.3-4.9-5.6-5.6c-3.5-1-23.6-3.3-23.6-3.3v-1.4
	c0,0,20.1-2.3,23.6-3.3c2.3-0.6,4.6-2.1,5.6-5.6c0.9-3.3,3.1-21.8,3.3-23.8c-13.8,2.6-23.3,8.9-35.2,15c-12.6,6.5-24.9,11.1-41,11.1
	c-14.1,0-26.7-4.6-35.8-10.2C24.2,191,54,214.8,89.3,214.8 M155.3,177.5c-6.2,0.8-15.7,2-18,2.6s-4.6,2.1-5.6,5.6
	c-0.7,2.3-1.9,11.8-2.6,18C139.8,197.2,148.8,188.2,155.3,177.5"></path>
</svg>
